<svg xmlns="http://www.w3.org/2000/svg" viewBox="0 0 1200 300" style="width: 100%; height: 100%; display: block; position: fixed; bottom: 0; left: 0; pointer-events: none;">
  <!-- Background Hill - Changed to darker color -->
  <path d="M0 220 Q600 180 1200 220 L1200 300 L0 300 Z" fill="#1a2634"/>
  
  <!-- Trees (Left to Right) - Adjusted to darker greens -->
  <g transform="translate(150, 200) scale(0.8)">
    <path d="M-15 80 L0 0 L15 80" fill="#1a1c1d"/>
    <circle cx="0" cy="20" r="35" fill="#1d4b2c"/>
    <circle cx="-20" cy="40" r="25" fill="#1e5631"/>
    <circle cx="20" cy="40" r="25" fill="#1e5631"/>
  </g>
  
  <g transform="translate(350, 180) scale(1.2)">
    <path d="M-15 80 L0 0 L15 80" fill="#1a1c1d"/>
    <circle cx="0" cy="20" r="35" fill="#163b22"/>
    <circle cx="-20" cy="40" r="25" fill="#1d4b2c"/>
    <circle cx="20" cy="40" r="25" fill="#1d4b2c"/>
  </g>
  
  <g transform="translate(600, 160) scale(1.4)">
    <path d="M-15 80 L0 0 L15 80" fill="#1a1c1d"/>
    <circle cx="0" cy="20" r="35" fill="#163b22"/>
    <circle cx="-20" cy="40" r="25" fill="#1d4b2c"/>
    <circle cx="20" cy="40" r="25" fill="#1d4b2c"/>
    <circle cx="0" cy="30" r="30" fill="#1e5631"/>
  </g>
  
  <g transform="translate(850, 180) scale(1.1)">
    <path d="M-15 80 L0 0 L15 80" fill="#1a1c1d"/>
    <circle cx="0" cy="20" r="35" fill="#163b22"/>
    <circle cx="-20" cy="40" r="25" fill="#1d4b2c"/>
    <circle cx="20" cy="40" r="25" fill="#1d4b2c"/>
  </g>
  
  <g transform="translate(1050, 200) scale(0.9)">
    <path d="M-15 80 L0 0 L15 80" fill="#1a1c1d"/>
    <circle cx="0" cy="20" r="35" fill="#1d4b2c"/>
    <circle cx="-20" cy="40" r="25" fill="#1e5631"/>
    <circle cx="20" cy="40" r="25" fill="#1e5631"/>
  </g>
</svg>